<svg xmlns="http://www.w3.org/2000/svg" viewBox="0 0 520 120" fill="none">
  <defs>
    <linearGradient id="eliteGrad" x1="0%" y1="0%" x2="100%" y2="100%">
      <stop offset="0%" stop-color="#A886CD"/>
      <stop offset="100%" stop-color="#3496FF"/>
    </linearGradient>
    <linearGradient id="eliteGradH" x1="0%" y1="0%" x2="100%" y2="0%">
      <stop offset="0%" stop-color="#A886CD"/>
      <stop offset="100%" stop-color="#3496FF"/>
    </linearGradient>
    <filter id="eliteGlow">
      <feGaussianBlur stdDeviation="2.5" result="blur"/>
      <feMerge>
        <feMergeNode in="blur"/>
        <feMergeNode in="SourceGraphic"/>
      </feMerge>
    </filter>
  </defs>
  <rect x="8" y="20" width="72" height="72" rx="14" fill="url(#eliteGrad)" opacity="0.15"/>
  <path d="M28 88 L28 32 L52 32 C62 32 70 38 70 48 C70 56 64 62 56 64 L70 88 L58 88 L46 66 L38 66 L38 88 Z M38 42 L38 58 L50 58 C54 58 58 54 58 50 C58 46 54 42 50 42 Z" fill="url(#eliteGrad)" filter="url(#eliteGlow)"/>
  <text x="100" y="48" font-family="'Plus Jakarta Sans', sans-serif" font-size="34" font-weight="800" fill="#FFFFFF" letter-spacing="1">ELITE AUTO</text>
  <text x="100" y="88" font-family="'Plus Jakarta Sans', sans-serif" font-size="26" font-weight="700" fill="url(#eliteGradH)" letter-spacing="6">DETAILING</text>
  <text x="100" y="112" font-family="'Plus Jakarta Sans', sans-serif" font-size="11" font-weight="500" fill="#7a7a6b" letter-spacing="4">DEMO PREVIEW</text>
</svg>
